<svg width="263" height="52" viewBox="0 0 263 52" fill="none" xmlns="http://www.w3.org/2000/svg">
<path d="M19.5173 4.95102C20.2781 4.95631 21.0385 4.96159 21.7642 4.96159H29.1493C29.8752 4.96159 30.6356 4.95631 31.3963 4.95102C33.4445 4.93678 35.4956 4.92252 36.8839 5.01134C41.9378 5.33469 45.4231 8.394 45.8713 13.5924C45.9775 15.4604 45.975 17.7106 45.972 20.3644C45.9715 20.8199 45.9709 21.2881 45.9709 21.7675V29.1457C45.9709 29.6251 45.9715 30.0924 45.972 30.5479C45.975 33.2021 45.9775 35.4526 45.8713 37.3208C45.4231 42.5191 41.9378 45.5784 36.8839 45.9018C35.4956 45.9906 33.4445 45.9764 31.3963 45.9621C30.6356 45.9568 29.8752 45.9515 29.1493 45.9515H21.7642C21.0385 45.9515 20.2781 45.9568 19.5173 45.9621C17.4691 45.9764 15.418 45.9906 14.0296 45.9018C8.97583 45.5784 5.49043 42.5191 5.0423 37.3208C4.93605 35.4528 4.93862 33.2025 4.94165 30.5487C4.94217 30.0932 4.9427 29.6251 4.9427 29.1457V21.7675C4.9427 21.2881 4.94217 20.8207 4.94165 20.3652C4.93862 17.7114 4.93605 15.4604 5.0423 13.5924C5.49043 8.394 8.97583 5.33469 14.0296 5.01134C15.418 4.92252 17.4691 4.93678 19.5173 4.95102Z" fill="url(#paint0_linear_1_154)"/>
<g filter="url(#filter0_d_1_154)">
<path d="M11.5608 19.4654C11.5608 18.4286 12.4014 17.588 13.4382 17.588H26.5798C29.1992 17.588 31.3227 19.7114 31.3227 22.3309V31.0755C31.3227 32.1123 30.4821 32.9529 29.4452 32.9529H16.3037C13.6842 32.9529 11.5608 30.8294 11.5608 28.21V19.4654Z" fill="url(#paint1_linear_1_154)"/>
<path d="M13.4381 17.8104H26.5796C29.0763 17.8104 31.1002 19.8343 31.1002 22.3309V31.0755C31.1002 31.9896 30.3591 32.7306 29.4451 32.7306H16.3035C13.8069 32.7306 11.783 30.7066 11.783 28.2101V19.4655C11.783 18.5514 12.5239 17.8104 13.4381 17.8104Z" stroke="url(#paint2_linear_1_154)" stroke-width="0.578034"/>
</g>
<g filter="url(#filter1_d_1_154)">
<path d="M32.5083 23.0278C32.5083 22.3888 32.7833 21.7807 33.2631 21.3586L37.0282 18.0464C37.8261 17.3445 39.0791 17.911 39.0791 18.9737V31.6049C39.0791 32.6575 37.8465 33.2277 37.0443 32.546L33.5881 29.6096C32.9031 29.0276 32.5083 28.1741 32.5083 27.2753V23.0278Z" fill="url(#paint3_linear_1_154)"/>
<path d="M33.4098 21.5256L37.1749 18.2134C37.8292 17.6378 38.8566 18.1024 38.8566 18.9738V31.6049C38.8566 32.4681 37.8459 32.9356 37.1881 32.3767L33.7319 29.4403C33.0966 28.9005 32.7305 28.109 32.7305 27.2753V23.0279C32.7305 22.4527 32.9779 21.9054 33.4098 21.5256Z" stroke="url(#paint4_linear_1_154)" stroke-width="0.578034"/>
</g>
<path d="M75.1341 22.6834H69.2146C69.1356 22.0756 68.9738 21.5271 68.7292 21.0377C68.4845 20.5484 68.1609 20.1301 67.7584 19.7828C67.3558 19.4355 66.8783 19.1711 66.3259 18.9896C65.7813 18.8002 65.1775 18.7055 64.5145 18.7055C63.3385 18.7055 62.3243 18.9935 61.4718 19.5697C60.6273 20.1459 59.9762 20.9785 59.5184 22.0677C59.0685 23.1569 58.8436 24.475 58.8436 26.022C58.8436 27.6321 59.0725 28.9817 59.5302 30.0709C59.9959 31.1522 60.6471 31.9691 61.4837 32.5216C62.3282 33.0662 63.3266 33.3385 64.479 33.3385C65.1262 33.3385 65.7142 33.2556 66.243 33.0899C66.7797 32.9241 67.2493 32.6834 67.6518 32.3677C68.0622 32.0441 68.3977 31.6534 68.6581 31.1956C68.9265 30.73 69.112 30.2051 69.2146 29.621L75.1341 29.6566C75.0315 30.73 74.7197 31.7876 74.1988 32.8294C73.6858 33.8713 72.9794 34.8223 72.0796 35.6826C71.1799 36.535 70.0828 37.2138 68.7884 37.7189C67.5019 38.2241 66.0259 38.4766 64.3606 38.4766C62.1664 38.4766 60.2011 37.9952 58.4647 37.0323C56.7362 36.0615 55.3708 34.6487 54.3684 32.7939C53.3661 30.9391 52.8649 28.6818 52.8649 26.022C52.8649 23.3542 53.374 21.093 54.3921 19.2382C55.4103 17.3834 56.7875 15.9746 58.5239 15.0117C60.2603 14.0488 62.2059 13.5673 64.3606 13.5673C65.8286 13.5673 67.1862 13.7725 68.4332 14.1829C69.6802 14.5855 70.7773 15.1774 71.7244 15.9588C72.6716 16.7323 73.4411 17.6834 74.0331 18.812C74.625 19.9407 74.992 21.2311 75.1341 22.6834ZM101.372 26.022C101.372 28.6897 100.859 30.951 99.8333 32.8057C98.8072 34.6605 97.4181 36.0694 95.6659 37.0323C93.9216 37.9952 91.9643 38.4766 89.7938 38.4766C87.6154 38.4766 85.6541 37.9912 83.9098 37.0204C82.1655 36.0496 80.7803 34.6408 79.7543 32.7939C78.7361 30.9391 78.227 28.6818 78.227 26.022C78.227 23.3542 78.7361 21.093 79.7543 19.2382C80.7803 17.3834 82.1655 15.9746 83.9098 15.0117C85.6541 14.0488 87.6154 13.5673 89.7938 13.5673C91.9643 13.5673 93.9216 14.0488 95.6659 15.0117C97.4181 15.9746 98.8072 17.3834 99.8333 19.2382C100.859 21.093 101.372 23.3542 101.372 26.022ZM95.3818 26.022C95.3818 24.4434 95.1568 23.1096 94.707 22.0204C94.265 20.9312 93.6257 20.1064 92.789 19.546C91.9603 18.9856 90.9619 18.7055 89.7938 18.7055C88.6335 18.7055 87.6351 18.9856 86.7985 19.546C85.9619 20.1064 85.3186 20.9312 84.8687 22.0204C84.4267 23.1096 84.2057 24.4434 84.2057 26.022C84.2057 27.6005 84.4267 28.9344 84.8687 30.0236C85.3186 31.1128 85.9619 31.9375 86.7985 32.4979C87.6351 33.0583 88.6335 33.3385 89.7938 33.3385C90.9619 33.3385 91.9603 33.0583 92.789 32.4979C93.6257 31.9375 94.265 31.1128 94.707 30.0236C95.1568 28.9344 95.3818 27.6005 95.3818 26.022ZM125.429 13.8988V38.1451H120.457L110.808 24.1514H110.654V38.1451H104.794V13.8988H109.837L119.38 27.8689H119.581V13.8988H125.429ZM149.75 13.8988V38.1451H144.777L135.128 24.1514H134.974V38.1451H129.114V13.8988H134.158L143.7 27.8689H143.901V13.8988H149.75ZM153.434 38.1451V13.8988H170.341V18.6581H159.295V23.6305H169.476V28.4016H159.295V33.3859H170.341V38.1451H153.434ZM196.019 22.6834H190.1C190.021 22.0756 189.859 21.5271 189.615 21.0377C189.37 20.5484 189.046 20.1301 188.644 19.7828C188.241 19.4355 187.764 19.1711 187.211 18.9896C186.667 18.8002 186.063 18.7055 185.4 18.7055C184.224 18.7055 183.21 18.9935 182.357 19.5697C181.513 20.1459 180.862 20.9785 180.404 22.0677C179.954 23.1569 179.729 24.475 179.729 26.022C179.729 27.6321 179.958 28.9817 180.416 30.0709C180.881 31.1522 181.532 31.9691 182.369 32.5216C183.214 33.0662 184.212 33.3385 185.364 33.3385C186.012 33.3385 186.6 33.2556 187.128 33.0899C187.665 32.9241 188.135 32.6834 188.537 32.3677C188.948 32.0441 189.283 31.6534 189.544 31.1956C189.812 30.73 189.997 30.2051 190.1 29.621L196.019 29.6566C195.917 30.73 195.605 31.7876 195.084 32.8294C194.571 33.8713 193.865 34.8223 192.965 35.6826C192.065 36.535 190.968 37.2138 189.674 37.7189C188.387 38.2241 186.911 38.4766 185.246 38.4766C183.052 38.4766 181.086 37.9952 179.35 37.0323C177.622 36.0615 176.256 34.6487 175.254 32.7939C174.251 30.9391 173.75 28.6818 173.75 26.022C173.75 23.3542 174.259 21.093 175.277 19.2382C176.296 17.3834 177.673 15.9746 179.409 15.0117C181.146 14.0488 183.091 13.5673 185.246 13.5673C186.714 13.5673 188.072 13.7725 189.319 14.1829C190.566 14.5855 191.663 15.1774 192.61 15.9588C193.557 16.7323 194.326 17.6834 194.918 18.812C195.51 19.9407 195.877 21.2311 196.019 22.6834ZM198.58 18.6581V13.8988H219.073V18.6581H211.721V38.1451H205.944V18.6581H198.58ZM221.935 38.1451V13.8988H227.795V33.3859H237.882V38.1451H221.935ZM235.964 13.8988H242.511L247.638 24.0449H247.851L252.977 13.8988H259.524L250.657 30.0472V38.1451H244.832V30.0472L235.964 13.8988Z" fill="white"/>
<defs>
<filter id="filter0_d_1_154" x="11.0488" y="17.5214" width="20.7855" height="16.422" filterUnits="userSpaceOnUse" color-interpolation-filters="sRGB">
<feFlood flood-opacity="0" result="BackgroundImageFix"/>
<feColorMatrix in="SourceAlpha" type="matrix" values="0 0 0 0 0 0 0 0 0 0 0 0 0 0 0 0 0 0 127 0" result="hardAlpha"/>
<feOffset dy="0.478605"/>
<feGaussianBlur stdDeviation="0.222564"/>
<feColorMatrix type="matrix" values="0 0 0 0 0.0509804 0 0 0 0 0.121569 0 0 0 0 0.396078 0 0 0 0.3 0"/>
<feBlend mode="multiply" in2="BackgroundImageFix" result="effect1_dropShadow_1_154"/>
<feBlend mode="normal" in="SourceGraphic" in2="effect1_dropShadow_1_154" result="shape"/>
</filter>
<filter id="filter1_d_1_154" x="32.1815" y="17.6694" width="7.22392" height="15.8109" filterUnits="userSpaceOnUse" color-interpolation-filters="sRGB">
<feFlood flood-opacity="0" result="BackgroundImageFix"/>
<feColorMatrix in="SourceAlpha" type="matrix" values="0 0 0 0 0 0 0 0 0 0 0 0 0 0 0 0 0 0 127 0" result="hardAlpha"/>
<feOffset dy="0.311208"/>
<feGaussianBlur stdDeviation="0.129954"/>
<feColorMatrix type="matrix" values="0 0 0 0 0.0509804 0 0 0 0 0.121569 0 0 0 0 0.396078 0 0 0 0.368551 0"/>
<feBlend mode="multiply" in2="BackgroundImageFix" result="effect1_dropShadow_1_154"/>
<feBlend mode="normal" in="SourceGraphic" in2="effect1_dropShadow_1_154" result="shape"/>
</filter>
<linearGradient id="paint0_linear_1_154" x1="25.4568" y1="4.94043" x2="25.4568" y2="45.9727" gradientUnits="userSpaceOnUse">
<stop offset="0.243333" stop-color="#B5FFF9"/>
<stop offset="1" stop-color="#00E0CE"/>
</linearGradient>
<linearGradient id="paint1_linear_1_154" x1="21.4417" y1="17.588" x2="21.4417" y2="32.9529" gradientUnits="userSpaceOnUse">
<stop stop-color="#7E7E7E"/>
<stop offset="1"/>
</linearGradient>
<linearGradient id="paint2_linear_1_154" x1="21.4415" y1="17.588" x2="21.4415" y2="32.9529" gradientUnits="userSpaceOnUse">
<stop stop-color="#D4FFFC"/>
<stop offset="0.888333" stop-color="#30D5C8"/>
</linearGradient>
<linearGradient id="paint3_linear_1_154" x1="35.7937" y1="17.7362" x2="35.7937" y2="32.8423" gradientUnits="userSpaceOnUse">
<stop stop-color="#7E7E7E" stop-opacity="0.905882"/>
<stop offset="1"/>
</linearGradient>
<linearGradient id="paint4_linear_1_154" x1="35.7936" y1="17.7363" x2="35.7936" y2="32.8424" gradientUnits="userSpaceOnUse">
<stop stop-color="#D4FFFC"/>
<stop offset="1" stop-color="#30D5C8"/>
</linearGradient>
</defs>
</svg>
